<svg id="Layer_1" data-name="Layer 1" xmlns="http://www.w3.org/2000/svg" viewBox="0 0 168.68 66.01"><defs><style>.cls-1{fill:#71aac3;}</style></defs><path class="cls-1" d="M47.57,36.34S61,36,61.28,21.11,43,5.74,43,5.74H9.19v66H45s19.07,1.15,19.07-17.36C64.09,36.43,47.57,36.34,47.57,36.34Zm-19.31-25h7.48s6.47,0,6.47,11.61c0,11.28-6.55,11.54-6.55,11.54h-7.4Zm7.83,54.89H28.26V39.91h8.42s7.66.69,7.66,13.15C44.34,66.21,36.09,66.21,36.09,66.21Z" transform="translate(-9.19 -5.74)"/><rect class="cls-1" x="61.7" y="6" width="19.91" height="60"/><rect class="cls-1" x="61.7" width="46.21" height="2.47"/><rect class="cls-1" x="132.38" width="36.3" height="2.47"/><rect class="cls-1" x="148.77" y="6" width="19.91" height="60"/><polygon class="cls-1" points="86.17 0 122.73 66 144.21 66 107.92 0 86.17 0"/><polygon class="cls-1" points="140.43 0 122.83 28.36 118.87 21.22 131.81 0 140.43 0"/><polygon class="cls-1" points="106.11 36 87.23 66 97.19 66 110.32 43.59 106.11 36"/></svg>